<?xml version="1.0" encoding="UTF-8"?>
<!DOCTYPE svg PUBLIC "-//W3C//DTD SVG 1.1//EN" "http://www.w3.org/Graphics/SVG/1.1/DTD/svg11.dtd">
<!-- Creator: CorelDRAW 2019 (64-Bit) -->
<svg xmlns="http://www.w3.org/2000/svg" xml:space="preserve" width="451px" height="136px" version="1.1" style="shape-rendering:geometricPrecision; text-rendering:geometricPrecision; image-rendering:optimizeQuality; fill-rule:evenodd; clip-rule:evenodd"
viewBox="0 0 450.97 136.43"
 xmlns:xlink="http://www.w3.org/1999/xlink">
 <defs>
  <style type="text/css">
   <![CDATA[
    .fil1 {fill:#FEFEFE;fill-rule:nonzero}
    .fil0 {fill:#E74623;fill-rule:nonzero}
   ]]>
  </style>
 </defs>
 <g id="Layer_x0020_1">
  <metadata id="CorelCorpID_0Corel-Layer"/>
  <g id="_2240604481184">
   <path class="fil0" d="M21.61 67.58c-3.2,0 -6.08,-0.38 -8.63,-1.13 -2.55,-0.76 -4.74,-1.65 -6.56,-2.69 -1.83,-1.04 -3.29,-2.09 -4.39,-3.16 -1.1,-1.07 -1.78,-1.92 -2.03,-2.55l0.28 -0.29c0.57,-0.81 1.2,-1.47 1.89,-1.98 0.63,-0.38 1.29,-0.56 1.98,-0.56 0.44,0 0.87,0.06 1.28,0.18 0.41,0.13 0.86,0.29 1.37,0.48 0.5,0.12 1,0.29 1.51,0.52 0.5,0.22 1.07,0.48 1.69,0.8 1.26,0.5 2.74,0.96 4.44,1.37 1.7,0.41 3.75,0.67 6.14,0.8l1.03 0c2.33,0 4.31,-0.27 5.95,-0.8 1.64,-0.54 2.96,-1.23 3.96,-2.08 1.01,-0.85 1.74,-1.79 2.18,-2.83 0.44,-1.04 0.66,-2.03 0.66,-2.98 0.06,-1.63 -0.43,-3.13 -1.47,-4.48 -1.03,-1.35 -2.47,-2.66 -4.29,-3.92 -1.83,-1.25 -3.97,-2.54 -6.42,-3.87 -2.45,-1.32 -5.06,-2.73 -7.83,-4.24 -4.53,-2.58 -7.9,-5.46 -10.1,-8.64 -2.2,-3.18 -3.15,-6.53 -2.83,-10.05 0.25,-2.64 0.97,-4.94 2.17,-6.89 1.19,-1.95 2.69,-3.57 4.48,-4.86 1.79,-1.29 3.81,-2.24 6.04,-2.83 2.23,-0.6 4.48,-0.9 6.75,-0.9 3.84,0 7.2,0.5 10.1,1.51 2.89,1.01 5.35,2.11 7.36,3.3 2.33,1.39 4.31,2.96 5.95,4.72l-0.19 0.29c-0.76,0.94 -1.39,1.57 -1.89,1.88 -0.63,0.44 -1.32,0.66 -2.08,0.66 -0.69,0 -1.54,-0.22 -2.54,-0.66 -0.51,-0.18 -1.03,-0.39 -1.56,-0.61 -0.54,-0.22 -1.12,-0.46 -1.75,-0.71 -1.82,-0.69 -3.76,-1.24 -5.8,-1.65 -2.05,-0.41 -3.86,-0.58 -5.43,-0.52 -0.82,0 -1.7,0.06 -2.64,0.19 -0.95,0.13 -1.84,0.35 -2.69,0.66 -0.85,0.32 -1.61,0.76 -2.27,1.32 -0.66,0.57 -1.11,1.29 -1.37,2.17 -0.56,1.89 -0.17,3.56 1.18,5.01 1.36,1.44 3.18,2.86 5.48,4.24 2.29,1.39 4.84,2.76 7.64,4.11 2.8,1.35 5.43,2.88 7.88,4.58 3.4,2.39 5.93,4.83 7.6,7.31 1.67,2.49 2.69,4.93 3.07,7.32 0.38,2.39 0.25,4.68 -0.38,6.89 -0.63,2.2 -1.51,4.15 -2.64,5.85 -2.01,3.14 -5.02,5.55 -9.01,7.22 -4,1.67 -8.42,2.5 -13.27,2.5zm73.25 -10.1c0,1.89 0.01,3.43 0.04,4.63 0.04,1.19 0.08,2.13 0.15,2.83 0.06,0.75 0.12,1.32 0.18,1.7 -3.9,0 -6.89,-0.82 -8.96,-2.46 -2.08,-1.63 -3.12,-4.31 -3.12,-8.02l-0.09 -13.31c0,-2.64 -0.27,-4.77 -0.8,-6.37 -0.54,-1.6 -1.23,-2.86 -2.08,-3.78 -0.85,-0.91 -1.79,-1.52 -2.83,-1.84 -1.04,-0.31 -2.09,-0.47 -3.16,-0.47 -1.07,0 -2.13,0.16 -3.16,0.47 -1.04,0.32 -1.99,0.93 -2.84,1.84 -0.85,0.92 -1.52,2.18 -2.03,3.78 -0.5,1.6 -0.75,3.73 -0.75,6.37l0 14.63c0,1.89 0.01,3.43 0.05,4.63 0.03,1.19 0.07,2.13 0.14,2.83 0.06,0.75 0.12,1.32 0.19,1.7 -3.9,0 -6.88,-0.82 -8.92,-2.46 -2.05,-1.63 -3.07,-4.31 -3.07,-8.02l0.09 -44.64c0,-3.78 0.98,-6.47 2.93,-8.07 1.95,-1.61 4.88,-2.41 8.78,-2.41 -0.07,0.38 -0.13,0.94 -0.19,1.7 -0.06,0.69 -0.11,1.63 -0.14,2.83 -0.03,1.19 -0.05,2.74 -0.05,4.62l0 13.5c1.45,-0.5 2.94,-0.85 4.48,-1.04 1.55,-0.19 3.04,-0.28 4.49,-0.28 2.45,0 4.9,0.27 7.36,0.8 2.45,0.54 4.67,1.56 6.65,3.07 1.99,1.51 3.59,3.6 4.82,6.28 1.22,2.67 1.84,6.12 1.84,10.33l0 14.63zm43.41 -28.41c1.96,2.01 3.48,4.39 4.58,7.13 1.1,2.73 1.65,5.68 1.65,8.82 0,3.15 -0.5,6.09 -1.51,8.83 -1,2.73 -2.42,5.11 -4.24,7.12 -1.83,2.08 -4.05,3.72 -6.66,4.91 -2.61,1.2 -5.52,1.79 -8.73,1.79 -2.89,0 -5.61,-0.59 -8.16,-1.79 -2.55,-1.19 -4.8,-2.83 -6.75,-4.91 -1.89,-2.01 -3.38,-4.39 -4.48,-7.12 -1.11,-2.74 -1.66,-5.68 -1.66,-8.83 0,-3.14 0.49,-6.09 1.47,-8.82 0.97,-2.74 2.37,-5.12 4.2,-7.13 1.82,-2.08 4.04,-3.71 6.65,-4.91 2.61,-1.19 5.52,-1.79 8.73,-1.79 2.96,0 5.71,0.6 8.26,1.79 2.55,1.2 4.77,2.83 6.65,4.91zm-14.91 30.49c0.82,0 1.78,-0.19 2.88,-0.57 1.1,-0.38 2.16,-1.1 3.16,-2.17 1.01,-1.07 1.86,-2.55 2.55,-4.44 0.69,-1.88 1.04,-4.34 1.04,-7.36 0,-3.02 -0.35,-5.49 -1.04,-7.41 -0.69,-1.92 -1.54,-3.4 -2.55,-4.43 -1,-1.04 -2.06,-1.75 -3.16,-2.13 -1.1,-0.37 -2.06,-0.56 -2.88,-0.56 -0.82,0 -1.78,0.19 -2.88,0.56 -1.1,0.38 -2.15,1.09 -3.16,2.13 -1.01,1.03 -1.86,2.51 -2.55,4.43 -0.69,1.92 -1.04,4.39 -1.04,7.41 0,3.02 0.35,5.48 1.04,7.36 0.69,1.89 1.54,3.37 2.55,4.44 1.01,1.07 2.06,1.79 3.16,2.17 1.1,0.38 2.06,0.57 2.88,0.57zm28.22 -14.54c0,-3.14 0.55,-6.09 1.65,-8.82 1.11,-2.74 2.6,-5.12 4.49,-7.13 1.89,-2.08 4.1,-3.71 6.65,-4.91 2.55,-1.19 5.3,-1.79 8.26,-1.79 3.21,0 6.12,0.6 8.73,1.79 2.61,1.2 4.83,2.83 6.66,4.91 1.82,2.01 3.24,4.39 4.24,7.13 1.01,2.73 1.51,5.68 1.51,8.82 0,3.15 -0.55,6.09 -1.65,8.83 -1.1,2.73 -2.63,5.11 -4.58,7.12 -1.88,2.08 -4.1,3.72 -6.65,4.91 -2.55,1.2 -5.3,1.79 -8.26,1.79 -3.59,0 -6.76,-0.72 -9.53,-2.17l0.09 14.35c0,1.89 0.02,3.43 0.05,4.62 0.03,1.2 0.08,2.14 0.14,2.84 0.06,0.75 0.13,1.32 0.19,1.7 -3.9,0 -6.87,-0.82 -8.92,-2.46 -2.04,-1.63 -3.07,-4.34 -3.07,-8.12l0 -33.41zm21.05 14.54c0.82,0 1.78,-0.19 2.88,-0.57 1.1,-0.38 2.15,-1.08 3.16,-2.12 1.01,-1.04 1.86,-2.52 2.55,-4.44 0.69,-1.92 1.04,-4.39 1.04,-7.41 0,-3.02 -0.35,-5.47 -1.04,-7.36 -0.69,-1.89 -1.54,-3.35 -2.55,-4.39 -1.01,-1.04 -2.06,-1.75 -3.16,-2.12 -1.1,-0.38 -2.06,-0.57 -2.88,-0.57 -0.82,0 -1.78,0.19 -2.88,0.57 -1.1,0.37 -2.15,1.08 -3.16,2.12 -1.01,1.04 -1.86,2.5 -2.55,4.39 -0.69,1.89 -1.04,4.34 -1.04,7.36 0,3.02 0.35,5.49 1.04,7.41 0.69,1.92 1.54,3.4 2.55,4.44 1.01,1.04 2.06,1.74 3.16,2.12 1.1,0.38 2.06,0.57 2.88,0.57z"/>
   <path class="fil1" d="M212.93 57.48c0,1.95 0.02,3.51 0.05,4.67 0.03,1.17 0.08,2.09 0.14,2.79 0.07,0.75 0.13,1.32 0.19,1.7 -3.9,0 -6.87,-0.81 -8.92,-2.41 -2.04,-1.61 -3.07,-4.3 -3.07,-8.07l0.1 -44.55c0,-3.78 1.01,-6.48 3.02,-8.12 2.01,-1.63 4.97,-2.45 8.87,-2.45 -0.06,0.44 -0.12,1.04 -0.19,1.79 -0.06,0.69 -0.11,1.62 -0.14,2.79 -0.03,1.16 -0.05,2.69 -0.05,4.57l0 16.43c0.95,-0.76 2.22,-1.78 3.83,-3.07 1.6,-1.29 3.25,-2.61 4.95,-3.97 1.7,-1.35 3.29,-2.61 4.77,-3.77 1.48,-1.16 2.53,-2 3.16,-2.5 2.58,-2.02 4.7,-3.34 6.37,-3.97 1.67,-0.63 3.13,-1 4.39,-1.13 1.51,-0.12 2.72,0 3.63,0.38 0.92,0.38 1.62,0.82 2.13,1.32 0.63,0.63 1.07,1.32 1.32,2.08 -0.5,0.37 -1.56,1.22 -3.16,2.55 -1.61,1.32 -3.45,2.83 -5.53,4.53 -2.07,1.69 -4.21,3.44 -6.41,5.23 -2.21,1.8 -4.16,3.39 -5.86,4.77l17.18 25.3 6.42 9.43c-0.57,0.57 -1.19,1.04 -1.89,1.42 -0.56,0.38 -1.22,0.71 -1.98,0.99 -0.75,0.28 -1.51,0.43 -2.26,0.43 -2.27,0 -4.22,-0.77 -5.86,-2.32 -1.63,-1.54 -3.14,-3.32 -4.53,-5.33 -0.5,-0.75 -1.21,-1.81 -2.12,-3.16 -0.91,-1.35 -1.9,-2.82 -2.97,-4.39 -1.07,-1.57 -2.17,-3.19 -3.31,-4.86 -1.13,-1.67 -2.18,-3.23 -3.16,-4.67 -0.97,-1.45 -1.81,-2.71 -2.5,-3.78 -0.69,-1.07 -1.16,-1.76 -1.42,-2.07 -1.07,0.88 -2.04,1.68 -2.92,2.4 -0.88,0.73 -1.64,1.34 -2.27,1.84l0 17.18zm53.14 -48.04c-1.32,2.2 -3.14,3.3 -5.47,3.3 -1.01,0 -1.95,-0.22 -2.83,-0.66 -0.95,-0.56 -1.67,-1.3 -2.17,-2.22 -0.51,-0.91 -0.76,-1.9 -0.76,-2.97 0,-1.2 0.28,-2.27 0.85,-3.21 0.57,-1.07 1.35,-1.9 2.36,-2.5 1.01,-0.6 2.04,-0.9 3.11,-0.9 0.95,0 1.86,0.25 2.74,0.76 1.01,0.5 1.76,1.23 2.27,2.17 0.5,0.94 0.75,1.95 0.75,3.02 0,1.13 -0.28,2.2 -0.85,3.21zm7.36 48.7c-0.31,0.44 -0.85,0.8 -1.6,1.09 -0.76,0.28 -1.51,0.36 -2.27,0.23 -0.75,-0.12 -1.41,-0.52 -1.98,-1.18 -0.56,-0.66 -0.85,-1.74 -0.85,-3.25l0 -22.56c0,-1.89 0.02,-3.42 0.05,-4.58 0.03,-1.16 0.08,-2.09 0.14,-2.78 0.06,-0.76 0.13,-1.36 0.19,-1.8 -3.9,0 -6.86,0.82 -8.87,2.46 -2.02,1.63 -3.02,4.34 -3.02,8.11l-0.1 22.28c0,1.57 0.24,3.08 0.71,4.53 0.47,1.45 1.2,2.71 2.17,3.78 0.98,1.06 2.19,1.9 3.64,2.5 1.44,0.59 3.14,0.8 5.09,0.61 2.02,-0.13 3.5,-0.71 4.44,-1.75 0.94,-1.03 1.57,-2.12 1.89,-3.25 0.37,-1.32 0.5,-2.8 0.37,-4.44zm4.82 -14.25c0,-4.22 0.61,-7.66 1.84,-10.34 1.23,-2.67 2.81,-4.76 4.76,-6.27 1.96,-1.51 4.14,-2.54 6.56,-3.07 2.43,-0.54 4.83,-0.8 7.23,-0.8l4.62 0c0.31,1.32 0.38,2.55 0.19,3.68 -0.13,0.94 -0.55,1.85 -1.28,2.74 -0.72,0.88 -1.9,1.41 -3.53,1.6 -1.07,0.13 -2.13,0.36 -3.17,0.71 -1.04,0.34 -1.96,0.94 -2.78,1.79 -0.82,0.85 -1.5,2.06 -2.03,3.64 -0.54,1.57 -0.8,3.68 -0.8,6.32l0 13.69c0,1.88 0.01,3.41 0.04,4.57 0.04,1.17 0.08,2.09 0.15,2.79 0.06,0.75 0.12,1.32 0.18,1.7 -3.83,0 -6.79,-0.81 -8.87,-2.41 -2.07,-1.61 -3.11,-4.3 -3.11,-8.07l0 -12.27zm35.2 -1.32c1.7,-1.07 3.62,-1.87 5.76,-2.41 2.14,-0.53 4.37,-0.8 6.7,-0.8 3.27,0 6.39,0.47 9.35,1.41 -0.19,-1.95 -0.6,-3.68 -1.23,-5.19 -0.82,-1.95 -2.05,-3.36 -3.68,-4.24 -0.63,-0.32 -1.31,-0.55 -2.03,-0.71 -0.72,-0.16 -1.56,-0.24 -2.5,-0.24l-1.04 0c-0.88,0.07 -1.76,0.21 -2.64,0.43 -0.88,0.22 -1.76,0.48 -2.65,0.8 -0.88,0.31 -1.76,0.58 -2.64,0.8 -0.88,0.22 -1.73,0.33 -2.55,0.33 -0.88,0 -1.73,-0.19 -2.55,-0.56 -0.75,-0.45 -1.41,-1.17 -1.98,-2.18l-0.19 -0.37 0.19 -0.29c1.89,-2.01 4.11,-3.63 6.66,-4.86 2.55,-1.22 5.33,-1.93 8.35,-2.12 0.31,-0.06 0.58,-0.1 0.8,-0.1 0.22,0 0.49,0 0.8,0 2.9,0 5.54,0.52 7.93,1.56 2.39,1.04 4.47,2.47 6.23,4.3 3.59,3.9 5.45,9.03 5.57,15.38l0 0.76c0,6.54 -1.67,11.86 -5,15.95 -1.64,2.01 -3.6,3.65 -5.9,4.91 -2.3,1.25 -4.86,2.04 -7.69,2.36 -0.38,0.06 -0.76,0.09 -1.14,0.09 -0.37,0 -0.78,0 -1.22,0 -1.32,0 -2.71,-0.11 -4.16,-0.33 -1.44,-0.22 -2.86,-0.65 -4.24,-1.27 -1.45,-0.57 -2.77,-1.31 -3.97,-2.22 -1.19,-0.92 -2.2,-2.09 -3.02,-3.54 -1.19,-1.83 -1.82,-4.06 -1.89,-6.7l0 -0.57c0,-2.45 0.51,-4.5 1.52,-6.13 0.88,-1.64 2.23,-3.06 4.05,-4.25zm19.54 4.53c-0.82,-0.13 -1.74,-0.25 -2.78,-0.38 -1.04,-0.13 -2.1,-0.19 -3.16,-0.19 -0.89,0 -1.74,0.05 -2.55,0.14 -0.82,0.1 -1.58,0.27 -2.27,0.52 -1.57,0.51 -2.77,1.29 -3.59,2.36 -0.31,0.38 -0.56,0.8 -0.75,1.28 -0.19,0.47 -0.31,0.99 -0.38,1.55 -0.06,0.19 -0.09,0.48 -0.09,0.85 0,0.63 0.09,1.31 0.28,2.03 0.19,0.73 0.57,1.4 1.13,2.03 0.51,0.63 1.25,1.17 2.22,1.61 0.98,0.44 2.28,0.66 3.92,0.66 0.5,0 0.88,-0.03 1.13,-0.1 1.76,-0.06 3.3,-0.56 4.63,-1.51 0.63,-0.37 1.16,-0.83 1.6,-1.37 0.44,-0.53 0.82,-1.11 1.13,-1.74 0.7,-1.2 1.17,-2.42 1.42,-3.68 0.25,-1.26 0.38,-2.43 0.38,-3.5 -0.07,0 -0.11,-0.01 -0.14,-0.04 -0.04,-0.03 -0.08,-0.05 -0.15,-0.05 -0.25,-0.06 -0.53,-0.13 -0.85,-0.19 -0.31,-0.06 -0.69,-0.16 -1.13,-0.28zm20.29 -4.25c0,-4.21 0.62,-7.66 1.84,-10.33 1.23,-2.68 2.8,-4.77 4.72,-6.28 1.92,-1.51 4.09,-2.53 6.52,-3.07 2.42,-0.53 4.86,-0.8 7.31,-0.8 2.39,0 4.81,0.27 7.27,0.8 2.45,0.54 4.67,1.56 6.65,3.07 1.99,1.51 3.59,3.6 4.82,6.28 1.22,2.67 1.84,6.12 1.84,10.33l0.38 23.79c-3.84,0 -6.8,-0.82 -8.88,-2.46 -2.07,-1.63 -3.11,-4.31 -3.11,-8.02l0.09 -13.31c0,-2.64 -0.27,-4.77 -0.8,-6.37 -0.53,-1.6 -1.24,-2.86 -2.12,-3.78 -0.88,-0.91 -1.86,-1.52 -2.93,-1.84 -1.07,-0.31 -2.14,-0.47 -3.21,-0.47 -1.07,0 -2.12,0.16 -3.16,0.47 -1.04,0.32 -1.98,0.93 -2.83,1.84 -0.85,0.92 -1.54,2.18 -2.08,3.78 -0.53,1.6 -0.8,3.73 -0.8,6.37l0 14.63c0.06,1.89 0.11,3.43 0.14,4.63 0.03,1.19 0.08,2.13 0.14,2.83 0.07,0.75 0.13,1.32 0.19,1.7 -3.9,0 -6.89,-0.82 -8.97,-2.46 -2.07,-1.63 -3.11,-4.31 -3.11,-8.02l0.09 -13.31zm53.99 -0.28c1.7,-1.07 3.62,-1.87 5.76,-2.41 2.14,-0.53 4.37,-0.8 6.7,-0.8 3.27,0 6.39,0.47 9.35,1.41 -0.19,-1.95 -0.6,-3.68 -1.23,-5.19 -0.82,-1.95 -2.05,-3.36 -3.68,-4.24 -0.63,-0.32 -1.31,-0.55 -2.03,-0.71 -0.73,-0.16 -1.56,-0.24 -2.5,-0.24l-1.04 0c-0.88,0.07 -1.76,0.21 -2.64,0.43 -0.89,0.22 -1.77,0.48 -2.65,0.8 -0.88,0.31 -1.76,0.58 -2.64,0.8 -0.88,0.22 -1.73,0.33 -2.55,0.33 -0.88,0 -1.73,-0.19 -2.55,-0.56 -0.75,-0.45 -1.41,-1.17 -1.98,-2.18l-0.19 -0.37 0.19 -0.29c1.89,-2.01 4.11,-3.63 6.66,-4.86 2.54,-1.22 5.33,-1.93 8.35,-2.12 0.31,-0.06 0.58,-0.1 0.8,-0.1 0.22,0 0.49,0 0.8,0 2.9,0 5.54,0.52 7.93,1.56 2.39,1.04 4.47,2.47 6.23,4.3 3.59,3.9 5.44,9.03 5.57,15.38l0 0.76c0,6.54 -1.67,11.86 -5,15.95 -1.64,2.01 -3.6,3.65 -5.9,4.91 -2.3,1.25 -4.86,2.04 -7.69,2.36 -0.38,0.06 -0.76,0.09 -1.14,0.09 -0.37,0 -0.78,0 -1.22,0 -1.32,0 -2.71,-0.11 -4.16,-0.33 -1.44,-0.22 -2.86,-0.65 -4.24,-1.27 -1.45,-0.57 -2.77,-1.31 -3.97,-2.22 -1.19,-0.92 -2.2,-2.09 -3.02,-3.54 -1.19,-1.83 -1.82,-4.06 -1.89,-6.7l0 -0.57c0,-2.45 0.51,-4.5 1.51,-6.13 0.88,-1.64 2.24,-3.06 4.06,-4.25zm19.54 4.53c-0.82,-0.13 -1.75,-0.25 -2.78,-0.38 -1.04,-0.13 -2.1,-0.19 -3.17,-0.19 -0.88,0 -1.73,0.05 -2.54,0.14 -0.82,0.1 -1.58,0.27 -2.27,0.52 -1.57,0.51 -2.77,1.29 -3.59,2.36 -0.31,0.38 -0.56,0.8 -0.75,1.28 -0.19,0.47 -0.32,0.99 -0.38,1.55 -0.06,0.19 -0.09,0.48 -0.09,0.85 0,0.63 0.09,1.31 0.28,2.03 0.19,0.73 0.57,1.4 1.13,2.03 0.51,0.63 1.25,1.17 2.22,1.61 0.98,0.44 2.28,0.66 3.92,0.66 0.5,0 0.88,-0.03 1.13,-0.1 1.76,-0.06 3.3,-0.56 4.63,-1.51 0.62,-0.37 1.16,-0.83 1.6,-1.37 0.44,-0.53 0.82,-1.11 1.13,-1.74 0.69,-1.2 1.17,-2.42 1.42,-3.68 0.25,-1.26 0.38,-2.43 0.38,-3.5 -0.07,0 -0.11,-0.01 -0.15,-0.04 -0.03,-0.03 -0.07,-0.05 -0.14,-0.05 -0.25,-0.06 -0.53,-0.13 -0.85,-0.19 -0.31,-0.06 -0.69,-0.16 -1.13,-0.28z"/>
   <path class="fil1" d="M23.28 118.45l0 0.34c0,1.1 -0.19,1.96 -0.58,2.58 -0.33,0.64 -0.83,1.13 -1.51,1.45 -0.61,0.36 -1.32,0.56 -2.11,0.61 -0.8,0.05 -1.52,0.09 -2.17,0.12 -2.94,0.13 -5.48,-0.02 -7.6,-0.46 -2.12,-0.44 -3.87,-1.27 -5.25,-2.5 -1.38,-1.23 -2.4,-2.91 -3.06,-5.03 -0.67,-2.12 -1,-4.79 -1,-8l0 -9.18c0,-2.21 0.34,-3.94 1.02,-5.2 0.36,-0.65 0.78,-1.17 1.26,-1.56 0.49,-0.39 1.06,-0.71 1.71,-0.97 0.42,-0.16 0.85,-0.3 1.31,-0.42 0.45,-0.11 0.94,-0.2 1.46,-0.26 0.68,-0.07 1.39,-0.12 2.13,-0.15 0.75,-0.03 1.53,-0.05 2.34,-0.05l4.28 0c2.07,0 3.56,-0.03 4.47,-0.09 0.9,-0.07 1.49,-0.12 1.75,-0.15l0.09 0 0.3 0 0 0.29c0,1.1 -0.2,1.96 -0.59,2.58 -0.35,0.61 -0.86,1.12 -1.5,1.5 -0.65,0.33 -1.34,0.52 -2.07,0.59 -0.73,0.06 -1.47,0.09 -2.21,0.09l-8.26 0c-0.2,0.04 -0.36,0.07 -0.49,0.1 -0.13,0.03 -0.24,0.08 -0.34,0.15 -0.2,0.1 -0.34,0.22 -0.44,0.39 -0.13,0.16 -0.21,0.38 -0.24,0.65 -0.03,0.28 -0.05,0.59 -0.05,0.95l0.15 5.93 11.95 0c0,1.46 -0.4,2.63 -1.21,3.5 -0.81,0.88 -1.96,1.31 -3.45,1.31l-7.34 0c-0.07,2.17 0.08,3.98 0.43,5.42 0.36,1.44 0.94,2.59 1.73,3.43 0.79,0.84 1.83,1.44 3.11,1.8 1.28,0.35 2.81,0.53 4.59,0.53 2.11,0 3.74,-0.03 4.89,-0.1 1.15,-0.06 1.85,-0.11 2.11,-0.14l0.1 0 0.29 -0.05zm32.57 -7.15c0,-1.36 -0.14,-2.45 -0.42,-3.28 -0.27,-0.82 -0.64,-1.47 -1.09,-1.94 -0.45,-0.47 -0.96,-0.79 -1.51,-0.95 -0.55,-0.16 -1.1,-0.24 -1.65,-0.24 -0.55,0 -1.09,0.08 -1.63,0.24 -0.53,0.16 -1.02,0.48 -1.46,0.95 -0.43,0.47 -0.79,1.12 -1.06,1.94 -0.28,0.83 -0.42,1.92 -0.42,3.28l0 7.54c0,0.97 0.02,1.76 0.05,2.38 0.03,0.62 0.07,1.1 0.1,1.46 0.03,0.39 0.06,0.68 0.1,0.87 -2.01,0 -3.55,-0.42 -4.62,-1.26 -1.07,-0.84 -1.61,-2.22 -1.61,-4.13l0.05 -6.86c0,-1.36 -0.14,-2.45 -0.41,-3.28 -0.28,-0.82 -0.64,-1.47 -1.09,-1.94 -0.46,-0.47 -0.96,-0.79 -1.51,-0.95 -0.55,-0.16 -1.1,-0.24 -1.65,-0.24 -0.55,0 -1.1,0.08 -1.63,0.24 -0.54,0.16 -1.02,0.48 -1.46,0.95 -0.44,0.47 -0.79,1.12 -1.05,1.94 -0.25,0.83 -0.38,1.92 -0.38,3.28l0 7.54c0,0.97 0,1.76 0.02,2.38 0.02,0.62 0.04,1.1 0.07,1.46 0.04,0.39 0.07,0.68 0.1,0.87 -2.01,0 -3.55,-0.42 -4.62,-1.26 -1.07,-0.84 -1.6,-2.22 -1.6,-4.13l0.05 -6.86c0,-2.17 0.31,-3.94 0.95,-5.32 0.63,-1.37 1.45,-2.45 2.45,-3.23 1,-0.78 2.13,-1.3 3.38,-1.58 1.25,-0.27 2.48,-0.41 3.72,-0.41 1.36,0 2.7,0.16 4.03,0.48 1.33,0.33 2.51,0.94 3.55,1.85 1.04,-0.91 2.22,-1.52 3.55,-1.85 1.33,-0.32 2.67,-0.48 4.03,-0.48 1.23,0 2.48,0.14 3.74,0.41 1.27,0.28 2.41,0.8 3.43,1.58 1.02,0.78 1.85,1.86 2.48,3.23 0.63,1.38 0.95,3.15 0.95,5.32l0 7.54c0,0.97 0.01,1.76 0.02,2.38 0.02,0.62 0.04,1.1 0.07,1.46 0.04,0.39 0.07,0.68 0.1,0.87 -2.01,0 -3.54,-0.42 -4.59,-1.26 -1.05,-0.84 -1.58,-2.22 -1.58,-4.13l0.05 -6.86zm10.01 1.12c0,-1.62 0.28,-3.13 0.85,-4.54 0.57,-1.41 1.34,-2.63 2.31,-3.67 0.97,-1.07 2.11,-1.91 3.43,-2.53 1.31,-0.61 2.73,-0.92 4.25,-0.92 1.65,0 3.15,0.31 4.49,0.92 1.35,0.62 2.49,1.46 3.43,2.53 0.94,1.04 1.67,2.26 2.19,3.67 0.52,1.41 0.78,2.92 0.78,4.54 0,1.62 -0.29,3.14 -0.85,4.55 -0.57,1.41 -1.36,2.63 -2.36,3.67 -0.97,1.07 -2.12,1.91 -3.43,2.52 -1.31,0.62 -2.73,0.93 -4.25,0.93 -1.85,0 -3.49,-0.37 -4.91,-1.12l0.05 7.39c0,0.97 0.01,1.76 0.02,2.38 0.02,0.62 0.04,1.1 0.08,1.46 0.03,0.39 0.06,0.68 0.09,0.87 -2.01,0 -3.54,-0.42 -4.59,-1.26 -1.05,-0.84 -1.58,-2.24 -1.58,-4.18l0 -17.21zm10.84 7.49c0.42,0 0.91,-0.1 1.48,-0.29 0.57,-0.2 1.11,-0.56 1.63,-1.1 0.52,-0.53 0.95,-1.29 1.31,-2.28 0.36,-0.99 0.54,-2.26 0.54,-3.82 0,-1.55 -0.18,-2.82 -0.54,-3.79 -0.36,-0.97 -0.79,-1.72 -1.31,-2.26 -0.52,-0.53 -1.06,-0.9 -1.63,-1.09 -0.57,-0.2 -1.06,-0.29 -1.48,-0.29 -0.42,0 -0.92,0.09 -1.48,0.29 -0.57,0.19 -1.11,0.56 -1.63,1.09 -0.52,0.54 -0.96,1.29 -1.31,2.26 -0.36,0.97 -0.54,2.24 -0.54,3.79 0,1.56 0.18,2.83 0.54,3.82 0.35,0.99 0.79,1.75 1.31,2.28 0.52,0.54 1.06,0.9 1.63,1.1 0.56,0.19 1.06,0.29 1.48,0.29zm32.81 -15.7c1,1.04 1.79,2.26 2.35,3.67 0.57,1.41 0.85,2.92 0.85,4.54 0,1.62 -0.25,3.14 -0.77,4.55 -0.52,1.41 -1.25,2.63 -2.19,3.67 -0.94,1.07 -2.08,1.91 -3.43,2.52 -1.34,0.62 -2.84,0.93 -4.49,0.93 -1.49,0 -2.9,-0.31 -4.21,-0.93 -1.31,-0.61 -2.47,-1.45 -3.47,-2.52 -0.97,-1.04 -1.74,-2.26 -2.31,-3.67 -0.57,-1.41 -0.85,-2.93 -0.85,-4.55 0,-1.62 0.25,-3.13 0.75,-4.54 0.5,-1.41 1.22,-2.63 2.16,-3.67 0.94,-1.07 2.09,-1.91 3.43,-2.53 1.35,-0.61 2.84,-0.92 4.5,-0.92 1.52,0 2.94,0.31 4.25,0.92 1.31,0.62 2.45,1.46 3.43,2.53zm-7.68 15.7c0.42,0 0.91,-0.1 1.48,-0.29 0.57,-0.2 1.11,-0.57 1.63,-1.12 0.52,-0.55 0.95,-1.31 1.31,-2.29 0.36,-0.97 0.53,-2.23 0.53,-3.79 0,-1.55 -0.17,-2.82 -0.53,-3.81 -0.36,-0.99 -0.79,-1.75 -1.31,-2.29 -0.52,-0.53 -1.06,-0.9 -1.63,-1.09 -0.57,-0.2 -1.06,-0.29 -1.48,-0.29 -0.42,0 -0.92,0.09 -1.49,0.29 -0.56,0.19 -1.11,0.56 -1.62,1.09 -0.52,0.54 -0.96,1.3 -1.32,2.29 -0.35,0.99 -0.53,2.26 -0.53,3.81 0,1.56 0.18,2.82 0.53,3.79 0.36,0.98 0.8,1.74 1.32,2.29 0.51,0.55 1.06,0.92 1.62,1.12 0.57,0.19 1.07,0.29 1.49,0.29zm43.01 -16.09c0.42,-1.04 1.01,-1.74 1.78,-2.11 0.76,-0.38 1.51,-0.6 2.26,-0.66 0.87,-0.07 1.79,0.02 2.77,0.24 -1.27,3.21 -2.43,6.18 -3.5,8.9 -0.46,1.16 -0.93,2.34 -1.41,3.52 -0.49,1.18 -0.95,2.3 -1.39,3.35 -0.43,1.06 -0.84,1.99 -1.21,2.8 -0.38,0.81 -0.68,1.43 -0.9,1.85 -0.55,1.03 -1.22,1.74 -1.99,2.11 -0.78,0.37 -1.51,0.59 -2.19,0.66 -0.84,0.06 -1.67,-0.04 -2.48,-0.29 -0.62,-1.95 -1.22,-3.81 -1.8,-5.59 -0.49,-1.56 -0.97,-3.15 -1.46,-4.77 -0.48,-1.62 -0.84,-2.98 -1.07,-4.08 -0.26,1.17 -0.51,2.33 -0.77,3.5 -0.26,1.17 -0.54,2.27 -0.83,3.3 -0.29,1.04 -0.59,2 -0.9,2.87 -0.31,0.88 -0.62,1.61 -0.95,2.19 -0.52,0.94 -1.15,1.6 -1.89,1.99 -0.75,0.39 -1.48,0.62 -2.19,0.68 -0.84,0.1 -1.7,0.03 -2.58,-0.19 -0.22,-0.59 -0.56,-1.4 -1.02,-2.46 -0.45,-1.05 -0.94,-2.22 -1.48,-3.52 -0.53,-1.3 -1.09,-2.66 -1.68,-4.08 -0.58,-1.43 -1.14,-2.8 -1.67,-4.11 -0.54,-1.31 -1.02,-2.5 -1.46,-3.57 -0.44,-1.07 -0.77,-1.9 -1,-2.48 -0.32,-0.65 -0.58,-1.22 -0.78,-1.7 -0.12,-0.29 -0.24,-0.59 -0.34,-0.88 0.98,-0.22 1.9,-0.31 2.77,-0.24 0.75,0.06 1.5,0.28 2.27,0.66 0.76,0.37 1.36,1.07 1.82,2.11 0.13,0.36 0.31,0.83 0.56,1.43 0.24,0.6 0.5,1.26 0.77,1.97 0.28,0.72 0.57,1.46 0.88,2.24 0.31,0.78 0.61,1.55 0.9,2.33 0.71,1.78 1.47,3.71 2.28,5.78 0.49,-2.07 0.96,-4 1.41,-5.78 0.39,-1.55 0.8,-3.09 1.22,-4.59 0.42,-1.51 0.78,-2.63 1.07,-3.38 0.42,-1.04 0.98,-1.74 1.7,-2.11 0.71,-0.38 1.42,-0.6 2.14,-0.66 0.84,-0.07 1.7,0.02 2.57,0.24l4.38 16.28c0.77,-2.07 1.52,-4 2.23,-5.78 0.62,-1.55 1.22,-3.09 1.8,-4.59 0.58,-1.51 1.04,-2.63 1.36,-3.38zm25.52 15.02c0.39,0.23 0.76,0.61 1.12,1.17l0.14 0.14 -0.14 0.15c-1.07,1.16 -2.34,2.08 -3.82,2.74 -1.47,0.67 -3.07,1 -4.79,1 -1.49,0 -2.89,-0.3 -4.2,-0.9 -1.31,-0.6 -2.47,-1.43 -3.48,-2.5 -0.97,-1.04 -1.74,-2.26 -2.3,-3.67 -0.57,-1.41 -0.85,-2.93 -0.85,-4.55 0,-1.62 0.25,-3.13 0.75,-4.54 0.5,-1.41 1.22,-2.65 2.16,-3.72 0.94,-1.04 2.08,-1.86 3.43,-2.48 1.34,-0.61 2.84,-0.92 4.49,-0.92 0.91,0 1.91,0.14 2.99,0.41 1.09,0.28 2.1,0.71 3.04,1.31 0.94,0.6 1.72,1.39 2.33,2.36 0.62,0.97 0.93,2.14 0.93,3.5 0,1.33 -0.34,2.41 -1.02,3.23 -0.68,0.83 -1.49,1.48 -2.43,1.95 -0.94,0.47 -1.94,0.79 -2.99,0.97 -1.06,0.18 -1.97,0.27 -2.75,0.27 -1.2,0 -2.24,-0.08 -3.13,-0.22 -0.89,-0.15 -1.5,-0.25 -1.83,-0.32 0.13,1.17 0.39,2.12 0.78,2.84 0.39,0.73 0.83,1.31 1.31,1.73 0.49,0.42 0.98,0.7 1.46,0.85 0.49,0.15 0.93,0.22 1.31,0.22 0.68,0 1.33,-0.07 1.95,-0.2 0.61,-0.12 1.17,-0.27 1.65,-0.43 0.49,-0.16 0.95,-0.33 1.39,-0.49 0.43,-0.16 0.86,-0.24 1.28,-0.24 0.46,0 0.86,0.11 1.22,0.34zm-7.49 -13.95c-0.35,0.03 -0.77,0.12 -1.26,0.27 -0.49,0.14 -0.96,0.41 -1.43,0.8 -0.47,0.39 -0.9,0.94 -1.29,1.65 -0.39,0.71 -0.67,1.62 -0.83,2.72 0.52,0.17 1.26,0.32 2.21,0.46 0.96,0.15 1.92,0.17 2.87,0.08 0.96,-0.1 1.8,-0.37 2.53,-0.83 0.73,-0.45 1.13,-1.21 1.19,-2.28 0.06,-0.81 -0.25,-1.51 -0.95,-2.09 -0.69,-0.59 -1.71,-0.85 -3.04,-0.78zm12.98 6.95c0,-2.17 0.32,-3.95 0.95,-5.32 0.63,-1.38 1.45,-2.46 2.45,-3.23 1.01,-0.78 2.13,-1.31 3.38,-1.58 1.25,-0.28 2.49,-0.42 3.72,-0.42l2.38 0c0.16,0.68 0.2,1.31 0.1,1.9 -0.07,0.48 -0.28,0.95 -0.66,1.41 -0.37,0.45 -0.98,0.73 -1.82,0.82 -0.55,0.07 -1.09,0.19 -1.63,0.37 -0.53,0.18 -1.01,0.48 -1.43,0.92 -0.42,0.44 -0.77,1.06 -1.05,1.87 -0.27,0.81 -0.41,1.9 -0.41,3.26l0 7.05c0,0.97 0.01,1.76 0.02,2.35 0.02,0.6 0.04,1.08 0.08,1.44 0.03,0.39 0.06,0.68 0.09,0.87 -1.97,0 -3.49,-0.41 -4.56,-1.24 -1.07,-0.82 -1.61,-2.21 -1.61,-4.15l0 -6.32zm21.53 -17.74c-0.68,1.13 -1.62,1.7 -2.82,1.7 -0.51,0 -1,-0.11 -1.45,-0.34 -0.49,-0.29 -0.86,-0.67 -1.12,-1.14 -0.26,-0.47 -0.39,-0.98 -0.39,-1.53 0,-0.62 0.15,-1.17 0.44,-1.66 0.29,-0.55 0.69,-0.98 1.21,-1.28 0.52,-0.31 1.06,-0.47 1.61,-0.47 0.48,0 0.95,0.13 1.41,0.39 0.51,0.26 0.9,0.63 1.16,1.12 0.26,0.49 0.39,1.01 0.39,1.56 0,0.58 -0.14,1.13 -0.44,1.65zm3.79 25.08c-0.16,0.23 -0.43,0.41 -0.82,0.56 -0.39,0.14 -0.78,0.18 -1.17,0.12 -0.39,-0.07 -0.73,-0.27 -1.02,-0.61 -0.29,-0.34 -0.44,-0.9 -0.44,-1.68l0 -11.61c0,-0.97 0.01,-1.76 0.03,-2.36 0.01,-0.6 0.04,-1.08 0.07,-1.43 0.03,-0.39 0.07,-0.7 0.1,-0.93 -2.01,0 -3.53,0.43 -4.57,1.27 -1.04,0.84 -1.56,2.23 -1.56,4.18l-0.04 11.47c0,0.81 0.12,1.59 0.36,2.33 0.24,0.75 0.62,1.39 1.12,1.95 0.5,0.55 1.12,0.98 1.87,1.28 0.74,0.31 1.62,0.42 2.62,0.32 1.04,-0.07 1.8,-0.36 2.29,-0.9 0.48,-0.53 0.81,-1.09 0.97,-1.68 0.19,-0.68 0.26,-1.44 0.19,-2.28zm2.53 -7.88c0,-2.17 0.32,-3.94 0.95,-5.32 0.63,-1.37 1.44,-2.45 2.43,-3.23 0.99,-0.78 2.11,-1.3 3.35,-1.58 1.25,-0.27 2.51,-0.41 3.77,-0.41 1.23,0 2.48,0.14 3.74,0.41 1.27,0.28 2.41,0.8 3.43,1.58 1.02,0.78 1.85,1.86 2.48,3.23 0.63,1.38 0.95,3.15 0.95,5.32l0.19 12.25c-1.98,0 -3.5,-0.42 -4.57,-1.26 -1.07,-0.84 -1.6,-2.22 -1.6,-4.13l0.05 -6.86c0,-1.36 -0.14,-2.45 -0.42,-3.28 -0.27,-0.82 -0.64,-1.47 -1.09,-1.94 -0.45,-0.47 -0.96,-0.79 -1.51,-0.95 -0.55,-0.16 -1.1,-0.24 -1.65,-0.24 -0.55,0 -1.09,0.08 -1.63,0.24 -0.53,0.16 -1.02,0.48 -1.46,0.95 -0.43,0.47 -0.79,1.12 -1.06,1.94 -0.28,0.83 -0.42,1.92 -0.42,3.28l0 7.54c0.03,0.97 0.06,1.76 0.07,2.38 0.02,0.62 0.05,1.1 0.08,1.46 0.03,0.39 0.06,0.68 0.1,0.87 -2.01,0 -3.55,-0.42 -4.62,-1.26 -1.07,-0.84 -1.61,-2.22 -1.61,-4.13l0.05 -6.86zm30.48 11.67c1.46,-0.45 3.03,-0.77 4.71,-0.95 1.69,-0.18 3.25,-0.09 4.69,0.27 1.44,0.36 2.64,1.04 3.57,2.04 0.94,1.01 1.41,2.45 1.41,4.33 0,1.39 -0.3,2.61 -0.92,3.64 -0.55,0.94 -1.31,1.75 -2.28,2.43 -0.94,0.62 -1.93,1.06 -2.97,1.31 -1.04,0.26 -1.99,0.39 -2.87,0.39l-0.43 0c-1.49,-0.06 -2.85,-0.39 -4.09,-0.97 -1.23,-0.58 -2.31,-1.38 -3.25,-2.38 -0.91,-1.04 -1.63,-2.24 -2.17,-3.62 -0.53,-1.38 -0.83,-2.94 -0.89,-4.69 -0.04,-0.13 -0.05,-0.26 -0.05,-0.39 0,-0.13 0,-0.26 0,-0.39 0,-1.85 0.32,-3.51 0.97,-5.01 0.65,-1.49 1.55,-2.72 2.72,-3.69 -1.04,-0.78 -1.85,-1.72 -2.45,-2.84 -0.6,-1.12 -0.9,-2.34 -0.9,-3.67 0,-1.2 0.26,-2.32 0.77,-3.36 0.52,-1.03 1.24,-1.92 2.14,-2.67 0.91,-0.78 1.96,-1.38 3.16,-1.82 1.2,-0.44 2.48,-0.66 3.84,-0.66 1.53,0 2.89,0.22 4.11,0.66 1.21,0.44 2.24,1.04 3.09,1.82 1.81,1.56 2.72,3.56 2.72,6.03 0,1.13 -0.25,2.22 -0.76,3.25 -0.5,1.04 -1.19,1.93 -2.06,2.68 -0.84,0.74 -1.82,1.33 -2.94,1.77 -1.12,0.44 -2.31,0.69 -3.57,0.75l0 0.05 -0.3 0c-1.07,0 -1.92,0.18 -2.57,0.54 -0.65,0.32 -1.15,0.79 -1.51,1.41 -0.36,0.52 -0.6,1.16 -0.73,1.94 -0.13,0.78 -0.19,1.38 -0.19,1.8zm4.71 -18.57c-0.29,0 -0.65,0.06 -1.07,0.17 -0.42,0.12 -0.82,0.34 -1.19,0.66 -0.37,0.32 -0.69,0.77 -0.95,1.34 -0.26,0.56 -0.38,1.3 -0.38,2.21 0,0.9 0.12,1.64 0.38,2.21 0.26,0.57 0.58,1 0.95,1.31 0.37,0.31 0.77,0.52 1.19,0.63 0.42,0.12 0.78,0.17 1.07,0.17 0.33,0 0.7,-0.05 1.12,-0.17 0.42,-0.11 0.82,-0.32 1.19,-0.63 0.37,-0.31 0.69,-0.74 0.95,-1.31 0.26,-0.57 0.39,-1.31 0.39,-2.21 0,-0.91 -0.13,-1.65 -0.39,-2.21 -0.26,-0.57 -0.58,-1.02 -0.95,-1.34 -0.37,-0.32 -0.77,-0.54 -1.19,-0.66 -0.42,-0.11 -0.79,-0.17 -1.12,-0.17zm4.09 26.69c0.32,-0.33 0.53,-0.68 0.63,-1.05 0.09,-0.37 0.14,-0.74 0.14,-1.09 0,-0.33 -0.01,-0.54 -0.05,-0.63 -0.09,-0.46 -0.27,-0.88 -0.53,-1.27 -0.23,-0.29 -0.55,-0.55 -0.97,-0.77 -0.42,-0.2 -0.88,-0.34 -1.36,-0.42 -0.49,-0.08 -0.99,-0.12 -1.51,-0.12 -0.52,0 -1.04,0.03 -1.56,0.1 -0.51,0.06 -1,0.14 -1.45,0.22 -0.46,0.08 -0.85,0.17 -1.19,0.26 -0.34,0.1 -0.6,0.17 -0.76,0.2 0.07,0.39 0.15,0.81 0.24,1.26 0.1,0.46 0.25,0.91 0.44,1.36 0.23,0.52 0.5,1 0.83,1.44 0.32,0.43 0.73,0.78 1.21,1.04 0.68,0.42 1.49,0.63 2.43,0.63 0.94,0 1.68,-0.11 2.22,-0.34 0.53,-0.22 0.94,-0.5 1.24,-0.82zm26.82 -12.25c0,1 0.01,1.81 0.03,2.4 0.02,0.6 0.04,1.08 0.07,1.44 0.03,0.39 0.07,0.68 0.1,0.87 -2.01,0 -3.53,-0.41 -4.57,-1.24 -1.04,-0.82 -1.56,-2.21 -1.56,-4.15l0 -20.56c0,-1.56 0.28,-2.85 0.83,-3.89 0.55,-1.04 1.31,-1.87 2.26,-2.5 0.96,-0.63 2.1,-1.09 3.43,-1.36 1.33,-0.28 2.77,-0.47 4.32,-0.56 1.01,-0.07 2.08,-0.03 3.21,0.12 1.14,0.14 2.26,0.4 3.38,0.78 1.12,0.37 2.18,0.85 3.18,1.43 1.01,0.58 1.89,1.3 2.65,2.16 0.76,0.86 1.36,1.84 1.8,2.94 0.44,1.11 0.62,2.34 0.56,3.7 -0.07,1.91 -0.67,3.61 -1.82,5.1 -1.15,1.49 -2.81,2.56 -4.99,3.21 0.75,0.26 1.38,0.67 1.9,1.24 0.52,0.57 0.98,1.25 1.39,2.04 0.4,0.79 0.81,1.66 1.21,2.6 0.41,0.94 0.85,1.9 1.34,2.87 0.35,0.74 0.74,1.42 1.16,2.01 0.43,0.6 0.81,1.13 1.17,1.58 0.39,0.52 0.79,0.98 1.22,1.37 -0.3,0.29 -0.62,0.53 -0.98,0.72 -0.35,0.17 -0.77,0.3 -1.26,0.39 -0.49,0.1 -1.07,0.1 -1.75,0 -0.78,-0.09 -1.49,-0.32 -2.14,-0.68 -0.65,-0.35 -1.29,-0.9 -1.94,-1.65 -0.65,-0.74 -1.34,-1.73 -2.07,-2.96 -0.73,-1.24 -1.56,-2.77 -2.5,-4.62 -0.55,-1.04 -1.22,-1.82 -1.99,-2.36 -0.78,-0.53 -1.74,-0.96 -2.87,-1.29 -0.2,-0.06 -0.38,-0.11 -0.56,-0.14 -0.18,-0.04 -0.35,-0.08 -0.51,-0.15 -0.23,-0.03 -0.54,-0.09 -0.95,-0.17 -0.4,-0.08 -0.82,-0.15 -1.24,-0.22 -0.48,-0.1 -0.99,-0.19 -1.51,-0.29l0 9.82zm4.91 -24.79c-0.97,0.1 -1.77,0.27 -2.4,0.51 -0.63,0.24 -1.14,0.54 -1.51,0.88 -0.37,0.34 -0.64,0.72 -0.8,1.14 -0.16,0.42 -0.24,0.84 -0.24,1.26 0,0.42 0,0.98 0,1.68 0,0.7 0,1.4 0.02,2.11 0.02,0.72 0.02,1.37 0.02,1.97 0,0.6 0,1 0,1.19 0.75,0.16 1.51,0.31 2.29,0.44 0.65,0.1 1.36,0.19 2.14,0.27 0.78,0.08 1.54,0.12 2.28,0.12 2.04,0 3.65,-0.41 4.81,-1.22 1.17,-0.81 1.87,-2.14 2.09,-3.98 0.13,-1.2 -0.04,-2.23 -0.53,-3.09 -0.49,-0.86 -1.15,-1.54 -1.99,-2.04 -0.85,-0.5 -1.82,-0.86 -2.92,-1.07 -1.1,-0.21 -2.19,-0.27 -3.26,-0.17zm38.26 24.79c0.38,0.23 0.76,0.61 1.11,1.17l0.15 0.14 -0.15 0.15c-1.07,1.16 -2.34,2.08 -3.81,2.74 -1.48,0.67 -3.07,1 -4.79,1 -1.49,0 -2.89,-0.3 -4.2,-0.9 -1.32,-0.6 -2.47,-1.43 -3.48,-2.5 -0.97,-1.04 -1.74,-2.26 -2.31,-3.67 -0.56,-1.41 -0.85,-2.93 -0.85,-4.55 0,-1.62 0.25,-3.13 0.75,-4.54 0.51,-1.41 1.23,-2.65 2.17,-3.72 0.94,-1.04 2.08,-1.86 3.42,-2.48 1.35,-0.61 2.85,-0.92 4.5,-0.92 0.91,0 1.9,0.14 2.99,0.41 1.09,0.28 2.1,0.71 3.04,1.31 0.94,0.6 1.71,1.39 2.33,2.36 0.62,0.97 0.92,2.14 0.92,3.5 0,1.33 -0.34,2.41 -1.02,3.23 -0.68,0.83 -1.49,1.48 -2.43,1.95 -0.94,0.47 -1.93,0.79 -2.99,0.97 -1.05,0.18 -1.96,0.27 -2.74,0.27 -1.2,0 -2.25,-0.08 -3.14,-0.22 -0.89,-0.15 -1.5,-0.25 -1.82,-0.32 0.13,1.17 0.39,2.12 0.78,2.84 0.39,0.73 0.82,1.31 1.31,1.73 0.49,0.42 0.97,0.7 1.46,0.85 0.48,0.15 0.92,0.22 1.31,0.22 0.68,0 1.33,-0.07 1.94,-0.2 0.62,-0.12 1.17,-0.27 1.66,-0.43 0.48,-0.16 0.94,-0.33 1.38,-0.49 0.44,-0.16 0.87,-0.24 1.29,-0.24 0.45,0 0.86,0.11 1.22,0.34zm-7.49 -13.95c-0.36,0.03 -0.78,0.12 -1.26,0.27 -0.49,0.14 -0.97,0.41 -1.44,0.8 -0.47,0.39 -0.9,0.94 -1.29,1.65 -0.38,0.71 -0.66,1.62 -0.82,2.72 0.52,0.17 1.25,0.32 2.21,0.46 0.96,0.15 1.91,0.17 2.87,0.08 0.95,-0.1 1.8,-0.37 2.53,-0.83 0.72,-0.45 1.12,-1.21 1.19,-2.28 0.06,-0.81 -0.25,-1.51 -0.95,-2.09 -0.7,-0.59 -1.71,-0.85 -3.04,-0.78zm26.34 14.39c0,0.09 0.02,0.21 0.05,0.34 0.07,0.26 0.1,0.5 0.1,0.73 0,0.58 -0.13,1.11 -0.39,1.57 -0.26,0.48 -0.61,0.87 -1.07,1.2 -0.91,0.64 -2.01,0.97 -3.3,0.97 -1.07,0 -2.13,-0.25 -3.16,-0.73 -1.04,-0.49 -1.98,-1.22 -2.82,-2.19 -0.84,-0.97 -1.52,-2.18 -2.02,-3.62 -0.5,-1.44 -0.75,-3.13 -0.75,-5.08l0.05 -14.05c0,-1.94 0.51,-3.33 1.55,-4.18 1.04,-0.84 2.55,-1.26 4.52,-1.26 -0.03,0.23 -0.06,0.54 -0.1,0.92 -0.03,0.36 -0.05,0.84 -0.07,1.44 -0.01,0.6 -0.02,1.38 -0.02,2.36l0.05 3.06 6.51 0c0,1.46 -0.41,2.62 -1.22,3.5 -0.81,0.87 -1.96,1.31 -3.45,1.31l-1.84 0 -0.05 6.9c0,1.36 0.12,2.5 0.36,3.43 0.25,0.92 0.58,1.67 1,2.26 0.87,1.1 2.01,1.65 3.4,1.65 0.58,0 1.17,-0.08 1.75,-0.24 0.32,-0.1 0.63,-0.2 0.92,-0.29z"/>
   <path class="fil1" d="M337.02 111.16c0.88,-0.55 1.87,-0.96 2.97,-1.24 1.1,-0.28 2.25,-0.41 3.45,-0.41 1.69,0 3.29,0.24 4.81,0.73 -0.09,-1.01 -0.31,-1.9 -0.63,-2.68 -0.42,-1 -1.05,-1.73 -1.89,-2.18 -0.33,-0.17 -0.68,-0.29 -1.05,-0.37 -0.37,-0.08 -0.8,-0.12 -1.29,-0.12l-0.53 0c-0.46,0.03 -0.91,0.1 -1.36,0.22 -0.46,0.11 -0.91,0.25 -1.36,0.41 -0.46,0.16 -0.91,0.3 -1.37,0.41 -0.45,0.12 -0.89,0.17 -1.31,0.17 -0.45,0 -0.89,-0.09 -1.31,-0.29 -0.39,-0.22 -0.73,-0.6 -1.02,-1.12l-0.1 -0.19 0.1 -0.15c0.97,-1.03 2.11,-1.87 3.43,-2.5 1.31,-0.63 2.74,-1 4.3,-1.09 0.16,-0.03 0.3,-0.05 0.41,-0.05 0.11,0 0.25,0 0.41,0 1.49,0 2.86,0.27 4.09,0.8 1.23,0.54 2.3,1.27 3.2,2.21 1.85,2.01 2.81,4.65 2.87,7.93l0 0.38c0,3.37 -0.86,6.11 -2.57,8.22 -0.85,1.04 -1.86,1.88 -3.04,2.53 -1.18,0.64 -2.5,1.05 -3.96,1.21 -0.2,0.03 -0.39,0.05 -0.59,0.05 -0.19,0 -0.4,0 -0.63,0 -0.68,0 -1.39,-0.06 -2.14,-0.17 -0.74,-0.11 -1.47,-0.33 -2.18,-0.66 -0.75,-0.29 -1.43,-0.67 -2.05,-1.14 -0.61,-0.47 -1.13,-1.08 -1.55,-1.82 -0.62,-0.94 -0.94,-2.09 -0.97,-3.45l0 -0.29c0,-1.27 0.26,-2.32 0.77,-3.16 0.46,-0.85 1.16,-1.58 2.09,-2.19zm10.07 2.33c-0.43,-0.06 -0.9,-0.13 -1.44,-0.19 -0.53,-0.07 -1.08,-0.1 -1.63,-0.1 -0.45,0 -0.89,0.02 -1.31,0.07 -0.42,0.05 -0.81,0.14 -1.17,0.27 -0.81,0.26 -1.42,0.66 -1.84,1.22 -0.16,0.19 -0.29,0.41 -0.39,0.65 -0.1,0.24 -0.16,0.51 -0.2,0.8 -0.03,0.1 -0.04,0.25 -0.04,0.44 0,0.33 0.04,0.67 0.14,1.05 0.1,0.37 0.29,0.72 0.59,1.04 0.25,0.33 0.64,0.6 1.14,0.83 0.5,0.22 1.17,0.34 2.01,0.34 0.26,0 0.46,-0.02 0.59,-0.05 0.9,-0.03 1.7,-0.29 2.38,-0.78 0.32,-0.19 0.6,-0.43 0.83,-0.7 0.22,-0.28 0.42,-0.58 0.58,-0.9 0.36,-0.62 0.6,-1.25 0.73,-1.9 0.13,-0.65 0.19,-1.25 0.19,-1.8 -0.03,0 -0.05,0 -0.07,-0.02 -0.02,-0.02 -0.04,-0.02 -0.07,-0.02 -0.13,-0.04 -0.28,-0.07 -0.44,-0.1 -0.16,-0.03 -0.36,-0.08 -0.58,-0.15zm16.42 -19.39c-0.68,1.13 -1.62,1.7 -2.81,1.7 -0.52,0 -1.01,-0.11 -1.46,-0.34 -0.49,-0.29 -0.86,-0.67 -1.12,-1.14 -0.26,-0.47 -0.39,-0.98 -0.39,-1.53 0,-0.62 0.15,-1.17 0.44,-1.66 0.29,-0.55 0.69,-0.98 1.21,-1.28 0.52,-0.31 1.06,-0.47 1.61,-0.47 0.48,0 0.95,0.13 1.41,0.39 0.51,0.26 0.9,0.63 1.16,1.12 0.26,0.49 0.39,1.01 0.39,1.56 0,0.58 -0.14,1.13 -0.44,1.65zm3.8 25.08c-0.17,0.23 -0.44,0.41 -0.83,0.56 -0.39,0.14 -0.78,0.18 -1.17,0.12 -0.39,-0.07 -0.73,-0.27 -1.02,-0.61 -0.29,-0.34 -0.44,-0.9 -0.44,-1.68l0 -11.61c0,-0.97 0.01,-1.76 0.03,-2.36 0.01,-0.6 0.04,-1.08 0.07,-1.43 0.03,-0.39 0.07,-0.7 0.1,-0.93 -2.01,0 -3.53,0.43 -4.57,1.27 -1.04,0.84 -1.56,2.23 -1.56,4.18l-0.04 11.47c0,0.81 0.12,1.59 0.36,2.33 0.24,0.75 0.62,1.39 1.12,1.95 0.5,0.55 1.12,0.98 1.87,1.28 0.74,0.31 1.62,0.42 2.62,0.32 1.04,-0.07 1.8,-0.36 2.29,-0.9 0.49,-0.53 0.81,-1.09 0.97,-1.68 0.2,-0.68 0.26,-1.44 0.2,-2.28zm12.39 0c0.06,0.84 0,1.6 -0.19,2.28 -0.17,0.59 -0.49,1.15 -0.98,1.68 -0.48,0.54 -1.24,0.83 -2.28,0.9 -1.01,0.1 -1.88,-0.01 -2.63,-0.32 -0.74,-0.3 -1.36,-0.73 -1.87,-1.28 -0.5,-0.56 -0.87,-1.2 -1.12,-1.95 -0.24,-0.74 -0.36,-1.52 -0.36,-2.33l0 -23.67c-0.03,-0.97 -0.06,-1.76 -0.07,-2.36 -0.02,-0.6 -0.04,-1.08 -0.08,-1.43 -0.03,-0.39 -0.06,-0.7 -0.09,-0.93 2.01,0 3.55,0.42 4.61,1.27 1.07,0.84 1.61,2.22 1.61,4.13l0 22.4c0,0.78 0.14,1.34 0.44,1.68 0.29,0.34 0.63,0.54 1.02,0.61 0.39,0.06 0.77,0.02 1.16,-0.12 0.39,-0.15 0.67,-0.33 0.83,-0.56zm21.53 -0.34c0.39,0.23 0.76,0.61 1.12,1.17l0.15 0.14 -0.15 0.15c-1.07,1.16 -2.34,2.08 -3.82,2.74 -1.47,0.67 -3.07,1 -4.78,1 -1.49,0 -2.9,-0.3 -4.21,-0.9 -1.31,-0.6 -2.47,-1.43 -3.47,-2.5 -0.98,-1.04 -1.74,-2.26 -2.31,-3.67 -0.57,-1.41 -0.85,-2.93 -0.85,-4.55 0,-1.62 0.25,-3.13 0.75,-4.54 0.5,-1.41 1.22,-2.65 2.16,-3.72 0.94,-1.04 2.09,-1.86 3.43,-2.48 1.35,-0.61 2.84,-0.92 4.5,-0.92 0.9,0 1.9,0.14 2.99,0.41 1.08,0.28 2.09,0.71 3.03,1.31 0.94,0.6 1.72,1.39 2.34,2.36 0.61,0.97 0.92,2.14 0.92,3.5 0,1.33 -0.34,2.41 -1.02,3.23 -0.68,0.83 -1.49,1.48 -2.43,1.95 -0.94,0.47 -1.94,0.79 -2.99,0.97 -1.05,0.18 -1.97,0.27 -2.75,0.27 -1.2,0 -2.24,-0.08 -3.13,-0.22 -0.89,-0.15 -1.5,-0.25 -1.82,-0.32 0.13,1.17 0.38,2.12 0.77,2.84 0.39,0.73 0.83,1.31 1.32,1.73 0.48,0.42 0.97,0.7 1.45,0.85 0.49,0.15 0.93,0.22 1.32,0.22 0.68,0 1.33,-0.07 1.94,-0.2 0.62,-0.12 1.17,-0.27 1.65,-0.43 0.49,-0.16 0.95,-0.33 1.39,-0.49 0.44,-0.16 0.87,-0.24 1.29,-0.24 0.45,0 0.86,0.11 1.21,0.34zm-7.48 -13.95c-0.36,0.03 -0.78,0.12 -1.27,0.27 -0.48,0.14 -0.96,0.41 -1.43,0.8 -0.47,0.39 -0.9,0.94 -1.29,1.65 -0.39,0.71 -0.66,1.62 -0.83,2.72 0.52,0.17 1.26,0.32 2.22,0.46 0.95,0.15 1.91,0.17 2.86,0.08 0.96,-0.1 1.8,-0.37 2.53,-0.83 0.73,-0.45 1.13,-1.21 1.19,-2.28 0.07,-0.81 -0.25,-1.51 -0.95,-2.09 -0.69,-0.59 -1.7,-0.85 -3.03,-0.78zm12.97 6.95c0,-2.17 0.32,-3.95 0.95,-5.32 0.63,-1.38 1.45,-2.46 2.46,-3.23 1,-0.78 2.13,-1.31 3.37,-1.58 1.25,-0.28 2.49,-0.42 3.72,-0.42l2.38 0c0.17,0.68 0.2,1.31 0.1,1.9 -0.06,0.48 -0.28,0.95 -0.66,1.41 -0.37,0.45 -0.98,0.73 -1.82,0.82 -0.55,0.07 -1.09,0.19 -1.63,0.37 -0.53,0.18 -1.01,0.48 -1.43,0.92 -0.42,0.44 -0.77,1.06 -1.04,1.87 -0.28,0.81 -0.42,1.9 -0.42,3.26l0 7.05c0,0.97 0.01,1.76 0.03,2.35 0.01,0.6 0.04,1.08 0.07,1.44 0.03,0.39 0.06,0.68 0.1,0.87 -1.98,0 -3.5,-0.41 -4.57,-1.24 -1.07,-0.82 -1.61,-2.21 -1.61,-4.15l0 -6.32zm26.25 6.03c0.07,-0.55 -0.09,-1.02 -0.46,-1.39 -0.37,-0.37 -0.91,-0.73 -1.61,-1.07 -0.69,-0.34 -1.51,-0.7 -2.45,-1.09 -0.94,-0.39 -1.93,-0.91 -2.96,-1.56 -0.78,-0.45 -1.42,-0.99 -1.92,-1.63 -0.51,-0.63 -0.87,-1.31 -1.1,-2.04 -0.22,-0.73 -0.32,-1.47 -0.29,-2.23 0.03,-0.76 0.21,-1.52 0.53,-2.26 0.33,-0.72 0.75,-1.31 1.27,-1.8 0.52,-0.49 1.09,-0.88 1.72,-1.19 0.64,-0.31 1.28,-0.53 1.92,-0.66 0.65,-0.13 1.25,-0.19 1.8,-0.19l0.59 0c1.71,0.09 3.28,0.52 4.71,1.26 1.43,0.75 2.64,1.74 3.65,2.97l0.14 0.14 -0.14 0.2c-0.33,0.45 -0.68,0.79 -1.07,1.02 -0.36,0.22 -0.77,0.34 -1.22,0.34 -0.45,0 -0.89,-0.09 -1.31,-0.27 -0.42,-0.18 -0.88,-0.36 -1.36,-0.56 -0.62,-0.26 -1.19,-0.48 -1.73,-0.65 -0.53,-0.18 -1.07,-0.27 -1.63,-0.27 -0.71,0 -1.24,0.15 -1.6,0.46 -0.36,0.31 -0.57,0.67 -0.63,1.09 -0.07,0.62 0.13,1.13 0.58,1.53 0.46,0.41 1.12,0.79 1.99,1.15 1.01,0.42 2.08,0.88 3.21,1.38 1.14,0.5 2.14,1.12 3.02,1.85 0.87,0.73 1.53,1.6 1.99,2.62 0.45,1.02 0.5,2.26 0.14,3.72 -0.16,0.58 -0.43,1.19 -0.82,1.82 -0.39,0.64 -0.93,1.21 -1.63,1.73 -0.7,0.52 -1.54,0.95 -2.53,1.29 -0.99,0.34 -2.14,0.51 -3.47,0.51 -0.26,0 -0.47,-0.02 -0.63,-0.05 -1.56,-0.07 -3.09,-0.47 -4.6,-1.22 -1.5,-0.74 -2.76,-1.73 -3.76,-2.96l-0.15 -0.15 0.15 -0.19c0.16,-0.26 0.34,-0.47 0.53,-0.63 0.19,-0.16 0.37,-0.31 0.53,-0.44 0.39,-0.19 0.78,-0.29 1.17,-0.29 0.45,0 0.89,0.09 1.31,0.27 0.42,0.17 0.88,0.36 1.36,0.55 0.46,0.23 0.97,0.43 1.54,0.59 0.56,0.16 1.19,0.27 1.87,0.34 1.16,0 2,-0.23 2.5,-0.68 0.5,-0.46 0.79,-0.91 0.85,-1.36z"/>
   <path class="fil1" d="M441.06 28.57l0 -5.32 -2.03 0 0 -0.93 5.12 0 0 0.93 -2.06 0 0 5.32 -1.03 0zm3.78 0l0 -6.25 1.52 0 1.57 4.99 1.53 -4.99 1.51 0 0 6.25 -0.96 0 0 -5.24 -1.61 5.24 -0.94 0 -1.67 -5.32 0 5.32 -0.95 0z"/>
  </g>
 </g>
</svg>
